# xmcd
#
# Track frame offsets:
#	150
#	11056
#	25188
#	39376
#	53409
#	69709
#	86222
#	100374
#	115962
#	128669
#	143699
#	160656
#	175720
#	184751
#	200975
#	222309
#	242376
#	257865
#
# Disc length: 3604 seconds
#
# Revision: 1
# Processed by: cddbd v1.5.2PL0 Copyright (c) Steve Scherf et al.
# Submitted via: audiograbber 1.83.01
#
DISCID=fa0e1212
DTITLE=Various Artist - STC VOL 8
DYEAR=1900
DGENRE=COUNTRY
TTITLE0=Stompin' Tom Connors - Sudbury Saturday Night
TTITLE1=Faith Hill - Let's Go To Vegas
TTITLE2=Eddie Rabbit - I Love A Rainy Night
TTITLE3=Roseanne Cash - Tennessee Flat Top Box
TTITLE4=Kenny Rogers - You Decorated My Life
TTITLE5=Kathy Mattea - 455 Rocket
TTITLE6=Terri Clark - Poor Poor Pitiful Me
TTITLE7=Reba McEntire - What Do You Say
TTITLE8=Alabama - I'm In A Hurry ( And Don't Know Why)
TTITLE9=John Conlee - Rose Colored Glasses
TTITLE10=Diamond Rio - How Your Love Makes Me Feel
TTITLE11=Jason McCoy - Born Again In Dixieland
TTITLE12=Charley Pride - Kiss An Angel Good Morning
TTITLE13=George Strait - Write This Down
TTITLE14=Steve Wariner - Holes In The Floor Of Heaven
TTITLE15=Rankin Family - Fare Thee Well Love
TTITLE16=Farmer's Daughter - Now That I'm On My Own
TTITLE17=Johnny Cash - Folsom Prison Blues
EXTD=
EXTT0=
EXTT1=
EXTT2=
EXTT3=
EXTT4=
EXTT5=
EXTT6=
EXTT7=
EXTT8=
EXTT9=
EXTT10=
EXTT11=
EXTT12=
EXTT13=
EXTT14=
EXTT15=
EXTT16=
EXTT17=
PLAYORDER=
